#N canvas 26 26 1366 725 12;
#X obj 82 683 dac~;
#X obj 176 284 osc~;
#X obj 175 349 *~ 0.75;
#X obj 176 209 * 2;
#X obj 93 267 osc~;
#X obj 90 607 *~ 0.01;
#X obj 282 211 * 3;
#X obj 497 212 * 5;
#X obj 408 209 * 4;
#X floatatom 498 250 5 0 0 0 - - - 0;
#X floatatom 406 248 5 0 0 0 - - - 0;
#X floatatom 176 242 5 0 0 0 - - - 0;
#X floatatom 284 247 5 0 0 0 - - - 0;
#X obj 290 291 osc~;
#X obj 405 294 osc~;
#X obj 502 291 osc~;
#X obj 289 344 *~ 0.5;
#X obj 406 341 *~ 0.35;
#X obj 500 341 *~ 0.25;
#X msg 89 86 440;
#X obj 90 47 loadbang;
#X floatatom 91 138 5 0 0 0 - - - 0;
#X connect 1 0 2 0;
#X connect 2 0 5 0;
#X connect 3 0 11 0;
#X connect 4 0 5 0;
#X connect 5 0 0 0;
#X connect 5 0 0 1;
#X connect 6 0 12 0;
#X connect 7 0 9 0;
#X connect 8 0 10 0;
#X connect 9 0 15 0;
#X connect 10 0 14 0;
#X connect 11 0 1 0;
#X connect 12 0 13 0;
#X connect 13 0 16 0;
#X connect 14 0 17 0;
#X connect 15 0 18 0;
#X connect 16 0 5 0;
#X connect 17 0 5 0;
#X connect 18 0 5 0;
#X connect 19 0 21 0;
#X connect 20 0 19 0;
#X connect 21 0 4 0;
#X connect 21 0 3 0;
#X connect 21 0 6 0;
#X connect 21 0 8 0;
#X connect 21 0 7 0;
