#N canvas 104 104 1366 725 12;
#X obj 286 134 noise~;
#X obj 280 270 *~ 0.5;
#X obj 289 377 dac~;
#X floatatom 377 134 5 0 0 0 - - - 0;
#X obj 281 203 bp~ 220 1;
#X floatatom 451 129 5 0 0 0 - - - 0;
#X connect 0 0 4 0;
#X connect 1 0 2 0;
#X connect 1 0 2 1;
#X connect 3 0 4 1;
#X connect 4 0 1 0;
#X connect 5 0 4 2;
